<svg width="308" height="308" viewBox="0 0 308 308" fill="none" xmlns="http://www.w3.org/2000/svg">
<line x1="222.569" y1="273.761" x2="84.5692" y2="34.7385" stroke="white" stroke-dasharray="2 2"/>
<line x1="273.264" y1="223.433" x2="34.2409" y2="85.433" stroke="white" stroke-dasharray="2 2"/>
<line x1="292.002" y1="154.5" x2="16.0022" y2="154.5" stroke="white" stroke-dasharray="2 2"/>
<line x1="273.764" y1="85.433" x2="34.7409" y2="223.433" stroke="white" stroke-dasharray="2 2"/>
<line x1="223.435" y1="34.7385" x2="85.4352" y2="273.762" stroke="white" stroke-dasharray="2 2"/>
<line x1="154.502" y1="16" x2="154.502" y2="292" stroke="white" stroke-dasharray="2 2"/>
<rect x="69.052" y="18.4285" width="32" height="32" rx="5" fill="white"/>
<path fill-rule="evenodd" clip-rule="evenodd" d="M75.9978 40.1991H93.9978V26.999H75.9978V40.1991Z" fill="#FFDA3E"/>
<path fill-rule="evenodd" clip-rule="evenodd" d="M84.9978 30.2991L75.9978 40.1991H93.9978L84.9978 30.2991Z" fill="#FFCC00"/>
<path fill-rule="evenodd" clip-rule="evenodd" d="M93.9978 26.999L85.936 34.8643C85.4106 35.3773 84.5851 35.3773 84.0596 34.8643L75.9978 26.999H93.9978Z" fill="#FF3333"/>
<rect x="18.4641" y="68.99" width="32" height="32" rx="5" fill="white"/>
<path fill-rule="evenodd" clip-rule="evenodd" d="M28.3201 91.7176C28.3201 92.3544 27.7807 92.8707 27.1155 92.8707H26.201C25.537 92.8707 24.9976 92.3544 24.9976 91.7176V77.187C24.9976 76.5513 25.5381 76.0339 26.201 76.0339H27.1155C27.7819 76.0339 28.3201 76.5513 28.3201 77.187V91.7176Z" fill="#434343"/>
<path fill-rule="evenodd" clip-rule="evenodd" d="M41.825 75.999H30.6663C30.0192 75.999 29.4945 76.5164 29.4945 77.1521V91.6827C29.4945 92.3195 30.0192 92.8358 30.6663 92.8358H31.7133V90.5577H40.8267V92.8358H41.825C42.4744 92.8358 42.9979 92.3195 42.9979 91.6827V77.1521C42.9979 76.5164 42.4744 75.999 41.825 75.999ZM32.8942 89.5489H31.7258V88.362H32.8942V89.5489ZM32.8942 87.2945H31.7258V86.1076H32.8942V87.2945ZM32.8942 85.0402H31.7258V83.8713H32.8942V85.0402ZM35.1606 89.5489H33.9922V88.362H35.1606V89.5489ZM35.1606 87.2945H33.9922V86.0907H35.1606V87.2945ZM35.1606 85.0402H33.9922V83.8532H35.1606V85.0402ZM37.427 89.5489H36.2587V88.38H37.427V89.5489ZM37.427 87.2945H36.2587V86.1256H37.427V87.2945ZM37.427 85.0402H36.2587V83.8363H37.427V85.0402ZM40.8448 86.1155V87.2957H38.5251V86.1155H40.8448ZM38.5251 85.0402V83.8431H40.8448V85.0402H38.5251ZM40.8448 80.5427H31.7258V78.2184H40.8448V80.5427Z" fill="#434343"/>
<path fill-rule="evenodd" clip-rule="evenodd" d="M39.6586 93.9989L39.6563 91.8043H32.9148L32.9171 93.9989H39.6586Z" fill="#434343"/>
<rect x="0.00219727" y="139.086" width="32" height="32" rx="5" fill="white"/>
<path d="M23.8696 147.712C23.8531 147.592 23.748 147.525 23.6611 147.518C23.5744 147.511 21.7392 147.375 21.7392 147.375C21.7392 147.375 20.4646 146.11 20.3248 145.969C20.1848 145.829 19.9114 145.872 19.8053 145.903C19.7897 145.908 19.5268 145.989 19.092 146.124C18.6663 144.898 17.9149 143.773 16.593 143.773C16.5565 143.773 16.519 143.774 16.4814 143.776C16.1054 143.279 15.6397 143.063 15.2375 143.063C12.1582 143.063 10.687 146.912 10.2258 148.869C9.02922 149.239 8.1792 149.503 8.07062 149.537C7.40273 149.747 7.38161 149.768 7.29391 150.397C7.22791 150.873 5.48035 164.388 5.48035 164.388L19.0977 166.94L26.4761 165.343C26.4761 165.343 23.8859 147.832 23.8696 147.712ZM18.3394 146.356L17.1872 146.713C17.1876 146.632 17.188 146.552 17.188 146.464C17.188 145.703 17.0823 145.09 16.9127 144.604C17.5939 144.689 18.0475 145.464 18.3394 146.356ZM16.0678 144.755C16.2572 145.229 16.3803 145.91 16.3803 146.829C16.3803 146.876 16.3799 146.919 16.3795 146.963C15.6301 147.195 14.8159 147.447 13.9998 147.7C14.458 145.931 15.3169 145.077 16.0678 144.755ZM15.1529 143.889C15.2858 143.889 15.4197 143.934 15.5479 144.022C14.561 144.487 13.5032 145.656 13.0565 147.992L11.1754 148.574C11.6986 146.793 12.9411 143.889 15.1529 143.889Z" fill="#95BF46"/>
<path d="M23.6612 147.518C23.5745 147.511 21.7393 147.375 21.7393 147.375C21.7393 147.375 20.4648 146.11 20.3249 145.969C20.2725 145.917 20.2019 145.891 20.1281 145.879L19.0985 166.939L26.4762 165.343C26.4762 165.343 23.886 147.832 23.8697 147.712C23.8532 147.592 23.7481 147.525 23.6612 147.518Z" fill="#5E8E3E"/>
<path d="M16.5931 151.595L15.6833 154.301C15.6833 154.301 14.8862 153.876 13.9091 153.876C12.4767 153.876 12.4046 154.775 12.4046 155.001C12.4046 156.237 15.6265 156.711 15.6265 159.606C15.6265 161.884 14.1818 163.35 12.2339 163.35C9.89632 163.35 8.70093 161.896 8.70093 161.896L9.32682 159.828C9.32682 159.828 10.5556 160.883 11.5924 160.883C12.2699 160.883 12.5455 160.349 12.5455 159.959C12.5455 158.347 9.90224 158.275 9.90224 155.626C9.90224 153.396 11.5027 151.238 14.7333 151.238C15.9781 151.238 16.5931 151.595 16.5931 151.595Z" fill="white"/>
<rect x="18.6633" y="207.352" width="32" height="32" rx="5" fill="white"/>
<path d="M35.582 221.647V229.967H34.03V221.063L35.582 221.647Z" fill="black"/>
<path d="M29.3816 220.871C29.3816 218.743 30.5416 217.583 31.9016 217.583C33.2616 217.583 33.4536 217.775 34.9976 218.551C36.5416 219.327 36.9336 219.519 37.7096 219.519C38.4856 219.519 38.8696 218.935 38.8696 217.775H40.2216C40.4136 220.095 39.0616 221.063 37.7016 221.063C36.3416 221.063 35.9576 220.871 34.6056 220.095C33.2536 219.319 32.8616 219.127 32.0856 219.127C31.3096 219.127 30.9256 219.711 30.7336 221.063L29.3816 220.871Z" fill="black"/>
<path d="M34.9978 234.999C28.3818 234.999 22.9978 229.615 22.9978 222.999C22.9978 216.383 28.3818 210.999 34.9978 210.999C41.6138 210.999 46.9978 216.383 46.9978 222.999C46.9978 229.615 41.6138 234.999 34.9978 234.999ZM34.9978 211.775C28.8058 211.775 23.7738 216.807 23.7738 222.999C23.7738 229.191 28.8058 234.223 34.9978 234.223C41.1898 234.223 46.2218 229.191 46.2218 222.999C46.2218 216.807 41.1898 211.775 34.9978 211.775Z" fill="black"/>
<rect x="69.3972" y="257.768" width="32" height="32" rx="5" fill="white"/>
<path d="M80.1856 285.913C84.1553 285.913 87.3734 282.594 87.3734 278.5C87.3734 274.407 84.1553 271.088 80.1856 271.088C76.2159 271.088 72.9978 274.407 72.9978 278.5C72.9978 282.594 76.2159 285.913 80.1856 285.913Z" fill="#04E061"/>
<path d="M92.6546 284.977C95.0534 284.977 96.9979 282.972 96.9979 280.498C96.9979 278.025 95.0534 276.019 92.6546 276.019C90.2559 276.019 88.3113 278.025 88.3113 280.498C88.3113 282.972 90.2559 284.977 92.6546 284.977Z" fill="#FF4053"/>
<path d="M81.5591 270.122C83.0435 270.122 84.2468 268.881 84.2468 267.35C84.2468 265.819 83.0435 264.578 81.5591 264.578C80.0747 264.578 78.8713 265.819 78.8713 267.35C78.8713 268.881 80.0747 270.122 81.5591 270.122Z" fill="#965EEB"/>
<path d="M90.9673 275.052C94.1948 275.052 96.8112 272.354 96.8112 269.026C96.8112 265.697 94.1948 262.999 90.9673 262.999C87.7397 262.999 85.1233 265.697 85.1233 269.026C85.1233 272.354 87.7397 275.052 90.9673 275.052Z" fill="#00AAFF"/>
<rect x="139.627" y="275.99" width="32" height="32" rx="5" fill="white"/>
<path d="M155.949 292.386C159.37 292.385 162.141 289.61 162.14 286.19C162.139 282.769 159.365 279.998 155.945 279.999C152.525 280 149.752 282.774 149.753 286.195C149.758 289.613 152.53 292.384 155.949 292.386ZM155.949 283.63C157.366 283.63 158.515 284.779 158.515 286.196C158.515 287.613 157.366 288.76 155.949 288.76C154.532 288.76 153.383 287.612 153.383 286.195C153.385 284.779 154.533 283.631 155.949 283.63ZM158.453 297.439C159.728 297.15 160.944 296.646 162.051 295.949C162.894 295.405 163.137 294.282 162.593 293.439C162.057 292.609 160.956 292.358 160.115 292.876C157.565 294.47 154.327 294.47 151.776 292.876C150.93 292.345 149.812 292.599 149.279 293.444C148.744 294.291 148.995 295.412 149.843 295.947C149.844 295.947 149.845 295.948 149.845 295.948C150.951 296.643 152.167 297.148 153.441 297.438L149.977 300.901C149.288 301.629 149.32 302.779 150.049 303.469C150.75 304.131 151.845 304.131 152.546 303.469L155.947 300.066L159.35 303.469C160.059 304.177 161.205 304.177 161.914 303.469C162.621 302.761 162.621 301.614 161.914 300.906L158.453 297.439Z" fill="#EB722E"/>
<rect x="207.758" y="257.096" width="32" height="32" rx="5" fill="white"/>
<path d="M232.653 274.635C233.449 275.412 234.29 276.144 235.004 276.999C235.319 277.379 235.618 277.772 235.846 278.213C236.17 278.84 235.877 279.531 235.314 279.568L231.818 279.566C230.916 279.641 230.197 279.278 229.592 278.662C229.108 278.169 228.659 277.644 228.194 277.134C228.003 276.926 227.803 276.73 227.565 276.575C227.087 276.265 226.673 276.36 226.4 276.858C226.123 277.364 226.059 277.925 226.032 278.489C225.995 279.312 225.746 279.529 224.919 279.566C223.151 279.65 221.474 279.382 219.916 278.491C218.542 277.705 217.477 276.595 216.549 275.339C214.744 272.893 213.362 270.205 212.119 267.442C211.839 266.819 212.044 266.485 212.731 266.473C213.871 266.451 215.012 266.453 216.154 266.472C216.617 266.478 216.924 266.744 217.103 267.182C217.72 268.7 218.476 270.143 219.423 271.481C219.676 271.838 219.933 272.194 220.3 272.445C220.705 272.722 221.014 272.63 221.205 272.179C221.326 271.892 221.379 271.584 221.406 271.277C221.496 270.222 221.508 269.168 221.35 268.117C221.252 267.46 220.883 267.035 220.228 266.911C219.894 266.848 219.943 266.724 220.105 266.533C220.386 266.204 220.651 265.999 221.177 265.999H225.129C225.751 266.122 225.889 266.401 225.974 267.027L225.978 271.416C225.971 271.659 226.099 272.378 226.535 272.538C226.884 272.652 227.115 272.373 227.324 272.151C228.27 271.147 228.946 269.961 229.549 268.732C229.817 268.192 230.047 267.63 230.27 267.07C230.435 266.654 230.695 266.449 231.163 266.458L234.966 266.461C235.079 266.461 235.193 266.463 235.302 266.482C235.943 266.591 236.119 266.867 235.921 267.492C235.609 268.474 235.002 269.292 234.409 270.114C233.775 270.992 233.096 271.84 232.467 272.722C231.89 273.529 231.935 273.935 232.653 274.635Z" fill="#436EAB"/>
<rect x="258.001" y="206.19" width="32" height="32" rx="5" fill="white"/>
<path d="M273.998 209.999C267.398 209.999 261.998 215.409 261.998 222.071C261.998 228.095 266.39 233.095 272.126 233.999V225.565H269.078V222.071H272.126V219.409C272.126 216.385 273.914 214.722 276.662 214.722C277.97 214.722 279.338 214.951 279.338 214.951V217.927H277.826C276.338 217.927 275.87 218.854 275.87 219.806V222.071H279.206L278.666 225.565H275.87V233.999C278.697 233.551 281.272 232.102 283.13 229.915C284.987 227.727 286.004 224.946 285.998 222.071C285.998 215.409 280.598 209.999 273.998 209.999Z" fill="#1B65F0"/>
<rect x="275.998" y="137.999" width="32" height="32" rx="5" fill="white"/>
<path d="M298.855 141.999H285.141C282.3 141.999 279.998 144.302 279.998 147.142V160.856C279.998 163.696 282.3 165.999 285.141 165.999H298.855C301.695 165.999 303.998 163.696 303.998 160.856V147.142C303.998 144.302 301.695 141.999 298.855 141.999Z" fill="url(#paint0_radial_1_40)"/>
<path d="M298.855 141.999H285.141C282.3 141.999 279.998 144.302 279.998 147.142V160.856C279.998 163.696 282.3 165.999 285.141 165.999H298.855C301.695 165.999 303.998 163.696 303.998 160.856V147.142C303.998 144.302 301.695 141.999 298.855 141.999Z" fill="url(#paint1_radial_1_40)"/>
<path d="M298.855 141.999H285.141C282.3 141.999 279.998 144.302 279.998 147.142V160.856C279.998 163.696 282.3 165.999 285.141 165.999H298.855C301.695 165.999 303.998 163.696 303.998 160.856V147.142C303.998 144.302 301.695 141.999 298.855 141.999Z" fill="url(#paint2_radial_1_40)"/>
<path d="M297.998 149.285C297.998 149.995 297.422 150.57 296.712 150.57C296.002 150.57 295.427 149.995 295.427 149.285C295.427 148.575 296.002 147.999 296.712 147.999C297.422 147.999 297.998 148.575 297.998 149.285Z" fill="white"/>
<path fill-rule="evenodd" clip-rule="evenodd" d="M291.998 158.285C294.365 158.285 296.284 156.366 296.284 153.999C296.284 151.632 294.365 149.713 291.998 149.713C289.631 149.713 287.712 151.632 287.712 153.999C287.712 156.366 289.631 158.285 291.998 158.285ZM291.998 156.571C293.418 156.571 294.569 155.419 294.569 153.999C294.569 152.579 293.418 151.428 291.998 151.428C290.578 151.428 289.426 152.579 289.426 153.999C289.426 155.419 290.578 156.571 291.998 156.571Z" fill="white"/>
<path fill-rule="evenodd" clip-rule="evenodd" d="M283.427 153.656C283.427 150.776 283.427 149.336 283.987 148.236C284.48 147.268 285.267 146.481 286.235 145.988C287.335 145.428 288.775 145.428 291.655 145.428H292.341C295.221 145.428 296.661 145.428 297.761 145.988C298.729 146.481 299.516 147.268 300.009 148.236C300.569 149.336 300.569 150.776 300.569 153.656V154.342C300.569 157.222 300.569 158.662 300.009 159.762C299.516 160.73 298.729 161.517 297.761 162.01C296.661 162.57 295.221 162.57 292.341 162.57H291.655C288.775 162.57 287.335 162.57 286.235 162.01C285.267 161.517 284.48 160.73 283.987 159.762C283.427 158.662 283.427 157.222 283.427 154.342V153.656ZM291.655 147.142H292.341C293.809 147.142 294.807 147.143 295.579 147.206C296.331 147.268 296.715 147.379 296.983 147.516C297.628 147.844 298.153 148.369 298.481 149.014C298.618 149.282 298.729 149.666 298.791 150.418C298.854 151.19 298.855 152.188 298.855 153.656V154.342C298.855 155.81 298.854 156.808 298.791 157.58C298.729 158.332 298.618 158.716 298.481 158.984C298.153 159.629 297.628 160.154 296.983 160.482C296.715 160.619 296.331 160.73 295.579 160.792C294.807 160.855 293.809 160.856 292.341 160.856H291.655C290.187 160.856 289.188 160.855 288.417 160.792C287.665 160.73 287.281 160.619 287.013 160.482C286.368 160.154 285.843 159.629 285.514 158.984C285.378 158.716 285.267 158.332 285.205 157.58C285.142 156.808 285.141 155.81 285.141 154.342V153.656C285.141 152.188 285.142 151.19 285.205 150.418C285.267 149.666 285.378 149.282 285.514 149.014C285.843 148.369 286.368 147.844 287.013 147.516C287.281 147.379 287.665 147.268 288.417 147.206C289.188 147.143 290.187 147.142 291.655 147.142Z" fill="white"/>
<rect x="257.803" y="69.4619" width="32" height="32" rx="5" fill="white"/>
<path d="M283.289 74.4374C282.66 73.8641 280.119 72.0416 274.458 72.0168C274.458 72.0168 267.783 71.6192 264.529 74.5679C262.717 76.3578 262.08 78.9768 262.013 82.2237C261.945 85.4707 261.858 91.5558 267.796 93.2057H267.802L267.798 95.7234C267.798 95.7234 267.76 96.7427 268.439 96.9505C269.261 97.2026 269.743 96.4279 270.528 95.5928C270.959 95.1344 271.553 94.461 272.001 93.9463C276.062 94.2839 279.185 93.5122 279.54 93.3982C280.36 93.1355 284.999 92.5484 285.754 86.4638C286.533 80.1923 285.377 76.2254 283.289 74.4374Z" fill="white"/>
<path d="M281.968 75.7042C281.436 75.227 279.142 73.8026 274.353 73.7819C274.353 73.7819 268.683 73.4139 265.931 75.8768C264.399 77.3711 263.883 79.5931 263.826 82.3047C263.77 85.0164 263.476 90.1965 268.497 91.5745C268.497 91.5745 268.477 95.4202 268.475 95.7582C268.475 95.9946 268.513 96.1563 268.65 96.1897C268.748 96.2133 268.896 96.163 269.021 96.0396C269.824 95.2432 272.394 92.18 272.394 92.18C275.842 92.4025 278.586 91.7298 278.881 91.6345C279.577 91.4136 283.34 91.0943 283.977 86.0124C284.635 80.7741 283.735 77.1985 281.968 75.7042Z" fill="#7360F2"/>
<path d="M276.788 82.082C276.726 80.8417 276.088 80.1903 274.875 80.1278" stroke="white" stroke-width="0.640265" stroke-linecap="round" stroke-linejoin="round"/>
<path d="M278.431 82.6259C278.456 81.4704 278.11 80.505 277.391 79.7297C276.67 78.9516 275.671 78.5232 274.389 78.4305" stroke="white" stroke-width="0.640265" stroke-linecap="round" stroke-linejoin="round"/>
<path d="M280.112 83.2757C280.097 81.2707 279.49 79.6915 278.293 78.5383C277.095 77.385 275.606 76.8023 273.825 76.79" stroke="white" stroke-width="0.640265" stroke-linecap="round" stroke-linejoin="round"/>
<path d="M274.938 86.3178C274.938 86.3178 275.388 86.3553 275.631 86.0604L276.103 85.4733C276.331 85.1822 276.881 84.9965 277.419 85.2929C277.823 85.5202 278.215 85.7674 278.593 86.0334C278.95 86.293 279.682 86.8963 279.684 86.8963C280.033 87.187 280.114 87.6139 279.876 88.0641C279.876 88.0668 279.874 88.0713 279.874 88.0735C279.613 88.5212 279.281 88.9249 278.891 89.2695C278.887 89.2718 278.887 89.274 278.882 89.2763C278.544 89.5559 278.211 89.7148 277.884 89.7531C277.836 89.7614 277.787 89.7644 277.738 89.7621C277.594 89.7635 277.451 89.7417 277.314 89.6976L277.303 89.6822C276.799 89.5419 275.959 89.1907 274.559 88.4277C273.748 87.9913 272.977 87.4879 272.253 86.9229C271.89 86.6399 271.543 86.3365 271.216 86.0143L271.181 85.9798L271.146 85.9452L271.111 85.9107C271.099 85.8995 271.088 85.8878 271.076 85.8762C270.75 85.5524 270.443 85.2103 270.156 84.8517C269.584 84.1363 269.075 83.3744 268.633 82.5741C267.86 81.1905 267.505 80.3607 267.363 79.8625L267.347 79.852C267.303 79.7165 267.281 79.5749 267.282 79.4325C267.28 79.3843 267.283 79.336 267.291 79.2885C267.332 78.9661 267.493 78.6371 267.775 78.3014C267.777 78.2973 267.779 78.2973 267.781 78.2928C268.13 77.9076 268.539 77.5799 268.992 77.3219C268.994 77.3219 268.999 77.3196 269.002 77.3196C269.457 77.0852 269.889 77.1647 270.183 77.5072C270.186 77.5095 270.795 78.2324 271.057 78.5854C271.326 78.9597 271.576 79.3471 271.806 79.7462C272.106 80.2778 271.918 80.8221 271.624 81.0465L271.029 81.5131C270.729 81.7525 270.769 82.1971 270.769 82.1971C270.769 82.1971 271.649 85.4883 274.938 86.3178Z" fill="white"/>
<rect x="207.414" y="18.7021" width="32" height="32" rx="5" fill="white"/>
<path d="M217.652 44.0674L218.04 44.2613C219.656 45.2309 221.466 45.6834 223.276 45.6834C228.964 45.6834 233.618 41.0294 233.618 35.3412C233.618 32.6264 232.519 29.9762 230.58 28.037C228.641 26.0979 226.055 24.999 223.276 24.999C217.588 24.999 212.934 29.653 212.998 35.4058C212.998 37.345 213.58 39.2195 214.55 40.8355L214.808 41.2233L213.774 45.037L217.652 44.0674Z" fill="#00E676"/>
<path d="M231.294 26.4895C229.097 24.2272 226.059 22.999 222.956 22.999C216.363 22.999 211.062 28.364 211.127 34.8925C211.127 36.961 211.709 38.9647 212.678 40.7746L210.998 46.9153L217.268 45.2993C219.013 46.2689 220.952 46.7214 222.891 46.7214C229.42 46.7214 234.72 41.3564 234.72 34.8279C234.72 31.6606 233.492 28.6872 231.294 26.4895ZM222.956 44.7176C221.211 44.7176 219.465 44.2651 217.979 43.3602L217.591 43.1663L213.842 44.1358L214.811 40.4514L214.553 40.0636C211.709 35.4743 213.066 29.3982 217.72 26.5541C222.374 23.71 228.386 25.0675 231.23 29.7214C234.074 34.3754 232.716 40.3868 228.062 43.2309C226.576 44.2005 224.766 44.7176 222.956 44.7176ZM228.644 37.5427L227.933 37.2195C227.933 37.2195 226.899 36.767 226.253 36.4438C226.188 36.4438 226.123 36.3792 226.059 36.3792C225.865 36.3792 225.735 36.4438 225.606 36.5085C225.606 36.5085 225.541 36.5731 224.637 37.6073C224.572 37.7366 224.443 37.8013 224.313 37.8013H224.249C224.184 37.8013 224.055 37.7366 223.99 37.672L223.667 37.5427C222.956 37.2195 222.31 36.8317 221.792 36.3146C221.663 36.1853 221.469 36.056 221.34 35.9267C220.888 35.4743 220.435 34.9572 220.112 34.3754L220.047 34.2461C219.983 34.1815 219.983 34.1169 219.918 33.9876C219.918 33.8583 219.918 33.729 219.983 33.6644C219.983 33.6644 220.241 33.3412 220.435 33.1473C220.564 33.018 220.629 32.8241 220.758 32.6948C220.888 32.5009 220.952 32.2423 220.888 32.0484C220.823 31.7252 220.047 29.98 219.853 29.5922C219.724 29.3982 219.595 29.3336 219.401 29.269H219.207C219.078 29.269 218.884 29.269 218.69 29.269C218.561 29.269 218.431 29.3336 218.302 29.3336L218.237 29.3982C218.108 29.4629 217.979 29.5922 217.849 29.6568C217.72 29.7861 217.656 29.9153 217.526 30.0446C217.074 30.6264 216.815 31.3374 216.815 32.0484C216.815 32.5655 216.945 33.0826 217.138 33.5351L217.203 33.729C217.785 34.9572 218.561 36.056 219.595 37.0256L219.853 37.2841C220.047 37.4781 220.241 37.6073 220.37 37.8013C221.728 38.9647 223.279 39.805 225.024 40.2575C225.218 40.3222 225.477 40.3222 225.671 40.3868C225.865 40.3868 226.123 40.3868 226.317 40.3868C226.64 40.3868 227.028 40.2575 227.287 40.1282C227.481 39.999 227.61 39.999 227.739 39.8697L227.868 39.7404C227.998 39.6111 228.127 39.5465 228.256 39.4172C228.386 39.2879 228.515 39.1587 228.579 39.0294C228.709 38.7708 228.773 38.4476 228.838 38.1244C228.838 37.9952 228.838 37.8013 228.838 37.672C228.838 37.672 228.773 37.6073 228.644 37.5427Z" fill="white"/>
<rect x="137.454" width="32" height="32" rx="5" fill="white"/>
<path d="M152.998 27.999C159.625 27.999 164.998 22.6264 164.998 15.999C164.998 9.37161 159.625 3.99902 152.998 3.99902C146.37 3.99902 140.998 9.37161 140.998 15.999C140.998 22.6264 146.37 27.999 152.998 27.999Z" fill="url(#paint3_linear_1_40)"/>
<path d="M158.986 11.0351C159.093 10.3447 158.437 9.79978 157.823 10.0693L145.596 15.4374C145.156 15.6307 145.188 16.2976 145.645 16.4429L148.166 17.2459C148.647 17.3992 149.168 17.3199 149.589 17.0296L155.273 13.1021C155.445 12.9837 155.632 13.2275 155.485 13.3784L151.393 17.5973C150.996 18.0065 151.075 18.7001 151.553 18.9995L156.134 21.8724C156.648 22.1946 157.309 21.871 157.405 21.25L158.986 11.0351Z" fill="white"/>
<rect x="130.002" y="130" width="48" height="48" rx="5" fill="#FF3D07"/>
<path d="M141.545 159.126C139.649 159.126 138.251 158.723 137.353 157.917C136.455 157.111 136.006 155.962 136.006 154.468C136.006 152.965 136.455 151.777 137.353 150.905C138.251 150.032 139.649 149.595 141.545 149.595C144.198 149.595 145.973 150.506 146.871 152.327C146.116 152.587 145.23 152.978 144.215 153.498C143.971 153.028 143.585 152.68 143.056 152.453C142.536 152.226 142.003 152.113 141.457 152.113C140.652 152.113 140.051 152.327 139.657 152.755C139.262 153.175 139.065 153.695 139.065 154.316C139.065 154.988 139.275 155.538 139.695 155.966C140.123 156.385 140.773 156.595 141.646 156.595C142.343 156.595 142.897 156.482 143.308 156.255C143.719 156.02 144.022 155.651 144.215 155.147C144.903 155.517 145.784 155.932 146.859 156.394C146.439 157.409 145.738 158.119 144.756 158.522C143.774 158.924 142.704 159.126 141.545 159.126ZM157.993 152.906C157.993 153.637 157.812 154.254 157.451 154.757C157.099 155.261 156.49 155.626 155.626 155.852C155.727 155.987 155.798 156.092 155.84 156.167L157.879 159H154.455C154.086 158.312 153.502 157.338 152.705 156.079H150.854V159H147.883C147.95 157.372 147.984 155.848 147.984 154.43C147.984 153.011 147.95 151.488 147.883 149.86H150.854V149.872H153.435C155.131 149.872 156.314 150.145 156.986 150.69C157.657 151.236 157.993 151.975 157.993 152.906ZM150.854 152.289V153.725H152.554C153.267 153.725 153.804 153.704 154.165 153.662C154.535 153.611 154.791 153.536 154.933 153.435C155.076 153.334 155.147 153.188 155.147 152.994C155.147 152.81 155.08 152.667 154.946 152.566C154.812 152.466 154.56 152.394 154.191 152.352C153.821 152.31 153.276 152.289 152.554 152.289H150.854ZM170.524 149.86L171.506 159H168.245L168.043 152.478L166.784 159H163.486L162.201 152.529L162.013 159H158.752L159.734 149.86H164.014L165.11 155.815L166.067 149.86H170.524Z" fill="white"/>
<defs>
<radialGradient id="paint0_radial_1_40" cx="0" cy="0" r="1" gradientUnits="userSpaceOnUse" gradientTransform="translate(288.569 159.999) rotate(-55.3758) scale(21.8739)">
<stop stop-color="#B13589"/>
<stop offset="0.79309" stop-color="#C62F94"/>
<stop offset="1" stop-color="#8A3AC8"/>
</radialGradient>
<radialGradient id="paint1_radial_1_40" cx="0" cy="0" r="1" gradientUnits="userSpaceOnUse" gradientTransform="translate(287.712 166.856) rotate(-65.1363) scale(19.3665)">
<stop stop-color="#E0E8B7"/>
<stop offset="0.444662" stop-color="#FB8A2E"/>
<stop offset="0.71474" stop-color="#E2425C"/>
<stop offset="1" stop-color="#E2425C" stop-opacity="0"/>
</radialGradient>
<radialGradient id="paint2_radial_1_40" cx="0" cy="0" r="1" gradientUnits="userSpaceOnUse" gradientTransform="translate(278.712 142.856) rotate(-8.1301) scale(33.3351 7.13002)">
<stop offset="0.156701" stop-color="#406ADC"/>
<stop offset="0.467799" stop-color="#6A45BE"/>
<stop offset="1" stop-color="#6A45BE" stop-opacity="0"/>
</radialGradient>
<linearGradient id="paint3_linear_1_40" x1="152.998" y1="3.99902" x2="152.998" y2="27.999" gradientUnits="userSpaceOnUse">
<stop stop-color="#37BBFE"/>
<stop offset="1" stop-color="#007DBB"/>
</linearGradient>
</defs>
</svg>
